<?xml  version="1.0" standalone="no"?><!DOCTYPE svg PUBLIC "-//W3C//DTD SVG 1.1//EN" "http://www.w3.org/Graphics/SVG/1.1/DTD/svg11.dtd"><svg t="1705829742547" class="icon" viewBox="0 0 1024 1024" version="1.1" xmlns="http://www.w3.org/2000/svg" p-id="27157" xmlns:xlink="http://www.w3.org/1999/xlink" width="128" height="128" ><path d="M348.9792 669.5936c70.7584 93.4912 140.3904 159.6416 143.36 162.4064 5.5296 5.2224 12.5952 7.7824 19.6608 7.7824 7.0656 0 14.1312-2.56 19.6608-7.7824 2.9696-2.7648 72.6016-68.9152 143.36-162.4064 41.8816-55.296 75.264-108.7488 99.328-158.72 30.9248-64.3072 46.592-123.5968 46.592-176.3328 0-82.5344-32.1536-160.1536-90.5216-218.4192C672.1536 57.7536 594.5344 25.6 512 25.6s-160.1536 32.1536-218.4192 90.5216c-58.368 58.368-90.5216 135.9872-90.5216 218.4192 0 52.6336 15.6672 112.0256 46.592 176.3328C273.7152 560.8448 307.2 614.2976 348.9792 669.5936M512 82.8416c138.752 0 251.6992 112.9472 251.6992 251.6992 0 165.376-189.3376 372.5312-251.6992 436.224-62.3616-63.6928-251.6992-270.6432-251.6992-436.224C260.3008 195.7888 373.248 82.8416 512 82.8416" p-id="27158" fill="#ffffff"></path><path d="M652.8 334.5408c0-77.6192-63.1808-140.8-140.8-140.8-77.6192 0-140.8 63.1808-140.8 140.8S434.3808 475.3408 512 475.3408C589.6192 475.3408 652.8 412.16 652.8 334.5408M428.544 334.5408c0-46.08 37.4784-83.456 83.456-83.456 46.08 0 83.456 37.4784 83.456 83.456 0 46.08-37.4784 83.456-83.456 83.456C465.92 418.0992 428.544 380.6208 428.544 334.5408" p-id="27159" fill="#ffffff"></path><path d="M959.2832 838.9632l-50.688-156.672c-16.384-50.4832-62.976-84.3776-116.0192-84.3776l-2.2528 0c-15.7696 0-28.672 12.8-28.672 28.672 0 15.7696 12.8 28.672 28.672 28.672l2.2528 0c28.16 0 52.9408 18.0224 61.5424 44.7488l50.688 156.672c6.4512 19.8656 3.072 41.0624-9.216 57.9584-12.288 16.896-31.3344 26.624-52.3264 26.624l-662.528 0c-20.8896 0-39.936-9.6256-52.224-26.5216-12.288-16.896-15.7696-37.9904-9.3184-57.856l50.176-156.672c8.6016-26.9312 33.3824-44.9536 61.6448-44.9536 15.7696 0 28.672-12.8 28.672-28.672 0-15.7696-12.8-28.672-28.672-28.672-53.248 0-99.9424 34.0992-116.1216 84.7872l-50.176 156.672c-11.9808 37.4784-5.5296 77.312 17.6128 109.056C105.472 980.1728 141.312 998.4 180.736 998.4l662.528 0c39.424 0 75.3664-18.3296 98.6112-50.176S971.4688 876.4416 959.2832 838.9632" p-id="27160" fill="#ffffff"></path></svg>
