<?xml version="1.0" standalone="no"?><!DOCTYPE svg PUBLIC "-//W3C//DTD SVG 1.1//EN" "http://www.w3.org/Graphics/SVG/1.1/DTD/svg11.dtd"><svg t="1705828473448" class="icon" viewBox="0 0 1061 1024" version="1.1" xmlns="http://www.w3.org/2000/svg" p-id="4294" xmlns:xlink="http://www.w3.org/1999/xlink" width="66.3125" height="64"><path d="M1061.924918 1023.999028H0V113.77767h1061.924918zM75.85178 948.147248h910.221358V189.62945H75.85178z" fill="#1262B3" p-id="4295"></path><path d="M227.55534 0h75.851779v303.407119h-75.851779zM758.517799 0h75.851779v303.407119h-75.851779z" fill="#1262B3" p-id="4296"></path><path d="M796.443689 1023.999028a265.48123 265.48123 0 1 1 187.721303-77.759926A263.739009 263.739009 0 0 1 796.443689 1023.999028z m0-455.110679c-104.556938 0-189.62945 85.072512-189.62945 189.62945s85.072512 189.62945 189.62945 189.629449 189.62945-85.072512 189.629449-189.629449-85.072512-189.62945-189.629449-189.62945z" fill="#FF584D" p-id="4297"></path><path d="M877.036205 794.867394h-113.77767v-189.62945h75.85178v113.77767h37.92589v75.85178z" fill="#FF584D" p-id="4298"></path><path d="M227.55534 417.184789h455.110679v75.85178H227.55534zM227.55534 606.814239h227.555339v75.85178H227.55534z" fill="#1262B3" p-id="4299"></path></svg>