<?xml version="1.0" standalone="no"?><!DOCTYPE svg PUBLIC "-//W3C//DTD SVG 1.1//EN" "http://www.w3.org/Graphics/SVG/1.1/DTD/svg11.dtd"><svg t="1705831414431" class="icon" viewBox="0 0 1246 1024" version="1.1" xmlns="http://www.w3.org/2000/svg" p-id="29381" xmlns:xlink="http://www.w3.org/1999/xlink" width="200" height="168"><path d="M424.506535 459.822183a229.908345 229.908345 0 1 0-229.123675-226.769665 229.123675 229.123675 0 0 0 229.123675 226.769665z m0-358.594245a129.47057 129.47057 0 1 1-129.47057 131.82458 129.47057 129.47057 0 0 1 129.47057-131.82458z m185.182149 402.535772H243.247737A243.247737 243.247737 0 0 0 0 747.011447v276.988553h95.729755V747.011447A148.302653 148.302653 0 0 1 243.247737 599.493465h131.824581l9.416041 10.200711-27.463454 160.857375 66.69696 68.266301 71.404981-68.266301-29.817465-160.857375 14.124063-10.200711h129.47057a147.517983 147.517983 0 0 1 145.163972 147.517982v276.988553h95.729755V747.011447a243.247737 243.247737 0 0 0-243.247738-243.247737z" fill="#ffffff" p-id="29382"></path><path d="M813.702915 106.720629h392.33506a40.018176 40.018176 0 0 1 39.233506 39.233506 39.233506 39.233506 0 0 1-39.233506 39.233506h-392.33506a39.233506 39.233506 0 0 1-39.233506-39.233506 39.233506 39.233506 0 0 1 39.233506-39.233506z" fill="#ffffff" p-id="29383"></path><path d="M813.702915 263.654653h235.401036a40.018176 40.018176 0 0 1 39.233506 39.233506 39.233506 39.233506 0 0 1-39.233506 39.233506h-235.401036a39.233506 39.233506 0 0 1-39.233506-39.233506 39.233506 39.233506 0 0 1 39.233506-39.233506z" fill="#ffffff" p-id="29384"></path><path d="M813.702915 420.588677h78.467012a40.018176 40.018176 0 0 1 39.233506 39.233506 39.233506 39.233506 0 0 1-39.233506 39.233506h-78.467012a39.233506 39.233506 0 0 1-39.233506-39.233506 39.233506 39.233506 0 0 1 39.233506-39.233506z" fill="#ffffff" p-id="29385"></path></svg>
