<?xml version="1.0" standalone="no"?><!DOCTYPE svg PUBLIC "-//W3C//DTD SVG 1.1//EN" "http://www.w3.org/Graphics/SVG/1.1/DTD/svg11.dtd"><svg t="1705829457141" class="icon" viewBox="0 0 1095 1024" version="1.1" xmlns="http://www.w3.org/2000/svg" p-id="14620" xmlns:xlink="http://www.w3.org/1999/xlink" width="136.875" height="128"><path d="M1053.016498 1021.515712H42.936941c-22.59839 0-41.087982-18.489592-41.087982-41.087982V109.362512a41.772782 41.772782 0 0 1 10.956795-30.815986c8.217596-8.217596 18.489592-13.011194 30.131187-13.011195h1010.079557c22.59839 0 41.087982 18.489592 41.087982 41.087982v873.804417c0 22.59839-18.489592 41.087982-41.087982 41.087982z m-986.796367-60.947173h963.513177V134.015301H66.220131z" fill="#ffffff" p-id="14621"></path><path d="M138.466499 785.054376v27.391988c0 13.559034 6.847997 20.407031 20.475511 20.407031h163.872568c13.627514 0 20.475511-6.847997 20.475511-20.475511v-27.323508c0-13.627514-6.847997-20.475511-20.475511-20.475511H158.94201c-13.627514 0-20.475511 6.847997-20.475511 20.543991zM199.961512 20.543991v163.667128c0 13.695994 6.847997 20.543991 20.543991 20.543991h41.087982c13.695994 0 20.543991-6.847997 20.543991-20.543991V20.543991c0-13.695994-6.847997-20.543991-20.543991-20.543991h-41.087982c-13.695994 0-20.543991 6.847997-20.543991 20.543991zM820.39004 20.543991v163.667128c0 13.695994 6.847997 20.543991 20.543991 20.543991h41.087982c13.695994 0 20.543991-6.847997 20.543991-20.543991V20.543991c0-13.695994-6.847997-20.543991-20.543991-20.543991h-41.087982c-13.695994 0-20.543991 6.847997-20.543991 20.543991zM445.667644 785.054376v27.391988c0 13.559034 6.847997 20.407031 20.475512 20.407031H630.015724c13.627514 0 20.475511-6.847997 20.475511-20.475511v-27.323508c0-13.627514-6.847997-20.475511-20.543991-20.475511H466.211635c-13.695994 0-20.543991 6.847997-20.543991 20.543991zM752.86879 402.799183v27.323508c0 13.627514 6.847997 20.475511 20.475511 20.475511h163.872568c13.627514 0 20.475511-6.847997 20.475511-20.543991v-27.255028c0-13.695994-6.847997-20.543991-20.475511-20.543991h-163.872568c-13.627514 0-20.475511 6.847997-20.475511 20.543991zM752.86879 593.926779v27.323508c0 13.627514 6.847997 20.475511 20.475511 20.475511h163.872568c13.627514 0 20.475511-6.847997 20.475511-20.543991v-27.255028c0-13.695994-6.847997-20.543991-20.475511-20.543991h-163.872568c-13.627514 0-20.475511 6.847997-20.475511 20.543991zM752.86879 785.054376v27.391988c0 13.559034 6.847997 20.407031 20.475511 20.407031h163.872568c13.627514 0 20.475511-6.847997 20.475511-20.475511v-27.323508c0-13.627514-6.847997-20.475511-20.475511-20.475511h-163.872568c-13.627514 0-20.475511 6.847997-20.475511 20.543991zM250.08885 236.940696h336.921452v414.303818c0 29.446387-8.217596 43.142381-28.761587 49.990378-21.228791 8.217596-58.207974 8.217596-116.415949 8.217597-2.739199-12.326395-10.956795-31.500786-17.804792-43.142381 45.19678 2.054399 89.708761 1.369599 102.719955 0.684799 13.011194-0.6848 16.435193-4.108798 16.435193-16.435192V540.991763h-264.332684c-13.695994 62.316773-41.087982 124.633545-94.502359 171.199925-6.163197-8.217596-21.91359-23.967989-31.500786-29.446388 89.023961-77.382366 97.241557-189.004717 97.241557-277.343878z m41.772782 132.166342h251.32149V276.659079h-251.32149z m-6.163197 132.166342h257.484687V408.140621h-251.32149c0 28.761587-1.369599 60.262374-6.163197 93.132759z" fill="#ffffff" p-id="14622"></path></svg>