<?xml version="1.0" standalone="no"?><!DOCTYPE svg PUBLIC "-//W3C//DTD SVG 1.1//EN" "http://www.w3.org/Graphics/SVG/1.1/DTD/svg11.dtd"><svg t="1705829614190" class="icon" viewBox="0 0 1092 1024" version="1.1" xmlns="http://www.w3.org/2000/svg" p-id="21385" xmlns:xlink="http://www.w3.org/1999/xlink" width="136.5" height="128"><path d="M212.797 308.656H324.58a37.284 37.284 0 1 1 0 74.568H212.797a37.284 37.284 0 1 1 0-74.568z m294.385 0h111.851a37.284 37.284 0 1 1 0 74.568H507.182a37.284 37.284 0 1 1 0-74.568zM212.729 469.515h111.92a37.284 37.284 0 1 1 0 74.567H212.796a37.284 37.284 0 1 1 0-74.567z m0 160.859h111.92a37.284 37.284 0 1 1 0 74.567H212.796a37.284 37.284 0 1 1 0-74.567z" fill="#ffffff" p-id="21386"></path><path d="M423.276 831.174H74.568V141.391h107.216v27.945a37.284 37.284 0 1 0 74.567 0v-27.945h125.825v27.945a37.284 37.284 0 1 0 74.567 0v-27.945h125.892v27.945a37.284 37.284 0 0 0 74.568 0v-27.945H764.35v176.535a37.284 37.284 0 1 0 74.568 0V141.391c0-41.101-33.4-74.568-74.568-74.568H657.135V38.877a37.284 37.284 0 1 0-74.568 0v27.946H456.743V38.877a37.284 37.284 0 1 0-74.567 0v27.946H256.35V38.877a37.284 37.284 0 1 0-74.567 0v27.946H74.568C33.467 66.823 0 100.29 0 141.391v689.783c0 41.169 33.467 74.636 74.568 74.636h348.708a37.284 37.284 0 1 0 0-74.636z" fill="#ffffff" p-id="21387"></path><path d="M773.62 382.747a317.287 317.287 0 0 0-316.945 316.946 317.287 317.287 0 0 0 316.946 316.946 317.287 317.287 0 0 0 316.946-316.946A317.287 317.287 0 0 0 773.62 382.747z m0 559.324a242.651 242.651 0 0 1-242.31-242.378 242.651 242.651 0 0 1 242.31-242.379A242.651 242.651 0 0 1 1016 699.693 242.651 242.651 0 0 1 773.62 942.07z" fill="#ffffff" p-id="21388"></path><path d="M659.93 858.643c36.465-47.712 42.259-129.369 42.259-185.192v-77.498h173.536v208.57c0 5.453-2.045 7.498-7.838 7.498H853.3v-88.813H721.546v113.35h44.577v-18.402h64.684c5.112 11.928 10.225 28.286 11.588 38.851 28.9 0 49.007-0.682 63.662-8.18 14.586-7.838 19.357-19.766 19.357-43.895V550.285h-272.3v123.166c0 48.394-2.386 111.988-33.331 153.838 10.905 5.794 32.035 22.152 40.214 31.354z m203.526-149.749v-38.51H810.02v-14.587h47.712V618.65h-47.712v-18.608h-46.622v18.676h-45.259v37.148h45.259v14.586h-51.734v38.51h151.793z m-55.823 72.455h-41.51v-21.402h41.578v21.402z" fill="#ffffff" p-id="21389"></path></svg>